<?xml version="1.0" encoding="UTF-8"?>
<svg width="118px" height="107px" viewBox="0 0 118 107" version="1.1" xmlns="http://www.w3.org/2000/svg" xmlns:xlink="http://www.w3.org/1999/xlink">
    <title>Artboard Copy 36</title>
    <g id="Artboard-Copy-36" stroke="none" stroke-width="1" fill="none" fill-rule="evenodd">
        <path d="M59.006398,1.21394403e-05 C61.8645129,-0.00206542285 64.7574613,0.648440622 67.4587907,2.01220789 L67.5035911,2.03564986 C67.543699,2.05595515 67.58374,2.07640708 67.6237132,2.09700544 C67.7849147,2.17984538 67.9452118,2.26565868 68.1047593,2.35403785 C68.8004226,2.73820605 69.4735435,3.16773511 70.1195588,3.64123723 L70.1715896,3.67996254 C70.3357699,3.80072535 70.4980956,3.92472042 70.6585755,4.0515416 C70.6912366,4.07730518 70.72366,4.10306968 70.7559796,4.12892712 L70.8959773,4.24231809 C71.133114,4.43553878 71.3646072,4.63414506 71.5903184,4.8375533 C71.6071518,4.85386416 71.6248196,4.86986804 71.6424604,4.88590919 C72.9117106,6.0374258 73.9958237,7.34152568 74.8836198,8.75286717 C75.014898,8.96103847 75.1424992,9.17202851 75.2665139,9.38638407 L115.472212,78.8807012 C120.651956,87.8337304 117.593104,99.290607 108.640075,104.470351 C108.630388,104.475955 108.620697,104.481551 108.611001,104.487137 C99.6279106,109.662803 88.1503816,106.587414 82.9586217,97.6136159 L81.6857227,95.41291 C68.5870473,84.2428485 53.4611584,84.2470537 36.3080559,95.4255257 L35.0413783,97.6136159 C29.8496184,106.587414 18.3720894,109.662803 9.38899939,104.487137 C0.426699436,99.3234504 -2.65268482,87.8720754 2.51100215,78.9097755 C2.51658882,78.900079 2.52218418,78.8903876 2.52778822,78.8807012 L5.13119082,74.3816533 C6.16082922,73.4631862 7.19572255,72.5323885 8.23587081,71.5892604 C16.1567666,64.4071884 28.4921469,63.5487783 34.0079954,67.857314 C35.8798316,69.3194414 37.7887945,71.1575092 39.6635925,73.0223386 L40.287162,73.6444605 C42.203155,75.560597 44.074792,77.4640483 45.8249373,78.9770097 L45.7636051,79.08182 L46.0144107,79.1396695 C48.0735359,80.8948295 49.9588604,82.0848013 51.5428229,82.0848013 C61.5861058,82.0848013 63.5378199,76.7452278 69.3152127,76.7452278 C73.166808,76.7452278 75.0612342,75.2318052 74.9984914,72.2049599 L61.0369647,53.68822 C62.9207652,42.304309 62.4448816,34.5956363 59.6093141,30.5622019 C54.850776,23.7934505 48.908258,18.6722489 41.7816043,15.1989662 C41.8953594,13.5629181 42.0917499,12.196082 42.3707757,11.0984579 C42.6071212,10.1687283 42.9517487,9.23942289 43.4046582,8.3105418 L43.2019157,8.61888967 C44.0668961,7.26863296 45.1136011,6.0186757 46.3308087,4.90908591 C46.364391,4.87961049 46.3973466,4.84974506 46.4303955,4.82000949 C46.5704171,4.6931467 46.7131425,4.56876759 46.8580856,4.44630478 C46.8836709,4.42517233 46.9086303,4.40416792 46.9336381,4.3832345 C46.9874033,4.33786704 47.0420522,4.29270891 47.0970085,4.24782188 C47.1456427,4.20827389 47.1942933,4.16888931 47.2431179,4.12976841 C47.2679115,4.10986332 47.2929494,4.08993376 47.3180494,4.07005995 C47.4768589,3.94413536 47.6372165,3.82119712 47.7993055,3.70104333 C47.8210595,3.68541395 47.8427444,3.66942983 47.8644722,3.65348613 C48.6048303,3.1090902 49.38098,2.62299951 50.1854824,2.19671361 L50.3760835,2.09658501 L50.4994985,2.03408605 C53.2124849,0.655215897 56.1206416,-0.00207621405 58.993602,1.21394405e-05 L59.006398,1.21394403e-05 Z M53.9227941,42.6165825 C55.5857397,42.6165825 56.9338235,43.9643343 56.9338235,45.6268703 C56.9338235,47.2894064 55.5857397,48.6371582 53.9227941,48.6371582 C52.2598485,48.6371582 50.9117647,47.2894064 50.9117647,45.6268703 C50.9117647,43.9643343 52.2598485,42.6165825 53.9227941,42.6165825 Z" id="Combined-Shape-Copy" fill="#000000"></path>
        <path d="M28.4333438,24.5522635 C23.9234735,27.5605271 14.0903031,36.8398227 17.9990243,45.8905502 C20.6048385,51.9243686 24.9146389,52.587243 30.9284254,47.8791733 C36.1671795,41.7455669 39.3987731,38.3736243 40.6232063,37.7633458 C42.4598561,36.8479279 46.8519872,37.5761847 50.1006968,38.6760671 C53.3494065,39.7759495 53.0954836,37.7633458 53.0954836,36.8479279 C52.5371296,32.4159027 47.8558103,26.9595228 41.4814092,24.5522635 C35.1070081,22.1450042 31.0970773,22.7754469 28.4333438,24.5522635 Z" id="Path-10" fill="#000000" transform="translate(35.100124, 36.974428) rotate(-371.000000) translate(-35.100124, -36.974428) "></path>
    </g>
</svg>